HIERARCHY
ROOT Hips
{
	OFFSET 0.000000 0.000000 0.000000 
	CHANNELS 6 Xposition Yposition Zposition Zrotation Yrotation Xrotation
	JOINT LeftUpLeg
	{
		OFFSET 1.363060 -1.794630 0.839290 
		CHANNELS 3 Zrotation Yrotation Xrotation
		JOINT LeftLeg
		{
			OFFSET 2.448110 -6.726130 0.000000 
			CHANNELS 3 Zrotation Yrotation Xrotation
			JOINT LeftFoot
			{
				OFFSET 2.562200 -7.039590 0.000000 
				CHANNELS 3 Zrotation Yrotation Xrotation
				JOINT LeftToeBase
				{
					OFFSET 0.157640 -0.433110 2.322550 
					CHANNELS 3 Zrotation Yrotation Xrotation
					End Site
					{
						OFFSET 0.000000 0.000000 0.000000 
					}
				}
			}
		}
	}
	JOINT RightUpLeg
	{
		OFFSET -1.305520 -1.794630 0.839290 
		CHANNELS 3 Zrotation Yrotation Xrotation
		JOINT RightLeg
		{
			OFFSET -2.542530 -6.985550 0.000000 
			CHANNELS 3 Zrotation Yrotation Xrotation
			JOINT RightFoot
			{
				OFFSET -2.568260 -7.056230 0.000000 
				CHANNELS 3 Zrotation Yrotation Xrotation
				JOINT RightToeBase
				{
					OFFSET -0.164730 -0.452590 2.363150 
					CHANNELS 3 Zrotation Yrotation Xrotation
					End Site
					{
						OFFSET 0.000000 0.000000 0.000000 
					}
				}
			}
		}
	}
	JOINT Spine
	{
		OFFSET 0.028270 2.035590 -0.193380 
		CHANNELS 3 Zrotation Yrotation Xrotation
		JOINT Spine1
		{
			OFFSET 0.056720 2.048850 -0.042750 
			CHANNELS 3 Zrotation Yrotation Xrotation
			JOINT Neck1
			{
				OFFSET -0.054170 1.746240 0.172020 
				CHANNELS 3 Zrotation Yrotation Xrotation
				JOINT Head
				{
					OFFSET 0.104070 1.761360 -0.123970 
					CHANNELS 3 Zrotation Yrotation Xrotation
					End Site
					{
						OFFSET 0.000000 0.000000 0.000000 
					}
				}
			}
			JOINT LeftArm
			{
				OFFSET 3.362410 1.200890 -0.311210 
				CHANNELS 3 Zrotation Yrotation Xrotation
				JOINT LeftForeArm
				{
					OFFSET 4.983000 -0.000000 -0.000000 
					CHANNELS 3 Zrotation Yrotation Xrotation
					JOINT LeftHand
					{
						OFFSET 3.483560 -0.000000 -0.000000 
						CHANNELS 3 Zrotation Yrotation Xrotation
						JOINT LeftHandIndex1
						{
							OFFSET 0.715260 -0.000000 -0.000000 
							CHANNELS 3 Zrotation Yrotation Xrotation
							End Site
							{
								OFFSET 0.000000 0.000000 0.000000 
							}
						}
					}
				}
			}
			JOINT RightArm
			{
				OFFSET -3.136600 1.374050 -0.404650 
				CHANNELS 3 Zrotation Yrotation Xrotation
				JOINT RightForeArm
				{
					OFFSET -5.241900 -0.000000 -0.000000 
					CHANNELS 3 Zrotation Yrotation Xrotation
					JOINT RightHand
					{
						OFFSET -3.444170 -0.000000 -0.000000 
						CHANNELS 3 Zrotation Yrotation Xrotation
						JOINT RightHandIndex1
						{
							OFFSET -0.622530 -0.000000 -0.000000 
							CHANNELS 3 Zrotation Yrotation Xrotation
							End Site
							{
								OFFSET 0.000000 0.000000 0.000000 
							}
						}
					}
				}
			}
		}
	}
}
MOTION
Frames: 13
Frame Time: 0.041667
-2.901989 17.384426 16.844710 -179.002114 15.780969 -178.188249 -14.004913 16.055408 -15.873223 2.117477 12.054173 33.330600 0.059282 2.656987 -8.537373 0.034800 1.204000 3.310200 24.743190 -31.986940 -85.938773 -31.533259 -15.982109 125.298792 -2.262683 -3.147336 30.216377 -1.897800 -8.649900 24.706200 3.211129 1.288755 -2.145676 0.564118 1.142020 -14.344485 15.259891 -17.212699 9.068863 2.706000 -7.694300 7.557300 -15.467726 2.650134 45.952591 135.406393 -50.891081 -100.666264 -0.141777 -0.385193 -12.516681 -7.125000 0.000000 0.000000 15.114128 6.637611 11.816480 -29.775292 38.894626 -11.425769 0.064590 -0.087934 -9.953376 7.125000 0.000000 0.000000 
-2.891472 17.404420 16.834308 -178.829848 15.591120 -177.857180 -13.880633 16.384196 -16.396088 2.175975 12.083131 33.495362 0.118396 2.346909 -8.013336 0.030900 1.135400 3.121500 23.546315 -30.627385 -83.283501 -30.719876 -16.575122 122.346263 -1.948031 -2.793409 28.465413 -1.929100 -8.716700 24.913200 3.322709 1.077102 -2.328977 0.619498 1.028792 -14.284376 15.035645 -17.221650 9.515536 2.640800 -7.677600 7.681600 -14.996232 2.394064 46.343134 136.563369 -50.209927 -101.455062 -0.017313 -0.362845 -13.078899 -7.125000 0.000000 0.000000 15.118366 6.616989 11.707400 -28.586200 37.872904 -10.642863 0.021005 -0.042466 -10.053227 7.125000 0.000000 0.000000 
-2.878528 17.424530 16.824832 -178.680297 15.399821 -177.530665 -13.768886 16.788149 -16.980972 2.250634 12.126475 33.717420 0.190854 1.979051 -7.428193 0.024800 1.016800 2.795100 22.432886 -29.259008 -80.607035 -29.826674 -17.163874 119.180427 -1.642846 -2.635190 26.723432 -1.978000 -8.820200 25.234400 3.438268 0.871301 -2.498799 0.682821 0.919745 -14.213637 14.853571 -17.214674 9.890858 2.592600 -7.658400 7.790400 -14.531278 2.088556 46.703660 137.581374 -49.585179 -102.145323 0.093288 -0.340101 -13.579376 -7.125000 0.000000 0.000000 15.079769 6.649206 11.448921 -27.346783 36.770361 -9.857337 -0.019827 -0.004075 -9.915374 7.125000 0.000000 0.000000 
-2.862810 17.443714 16.816164 -178.560691 15.202420 -177.214089 -13.670521 17.258014 -17.627284 2.345096 12.189358 34.013447 0.280747 1.537322 -6.782605 0.015900 0.815200 2.240400 21.399267 -27.917146 -77.926291 -28.855778 -17.734143 115.815469 -1.344891 -2.718482 25.015240 -2.043600 -8.956200 25.658400 3.553002 0.672402 -2.644650 0.754860 0.815662 -14.123355 14.710030 -17.204574 10.197720 2.556400 -7.641700 7.887700 -14.076034 1.734118 47.017340 138.469462 -49.019922 -102.745741 0.184596 -0.315526 -13.997099 -7.125000 0.000000 0.000000 15.006450 6.710940 11.070857 -26.074874 35.597491 -9.082080 -0.056319 0.021633 -9.381110 7.125000 0.000000 0.000000 
-2.844088 17.460935 16.808536 -178.474356 14.993045 -176.914514 -13.582274 17.793186 -18.335126 2.463219 12.275528 34.398047 0.393499 0.997704 -6.072114 0.006100 0.504300 1.385600 20.450824 -26.624869 -75.251517 -27.808834 -18.272699 112.267533 -1.051433 -3.031562 23.354490 -2.085400 -9.041800 25.926200 3.659793 0.475574 -2.766666 0.833931 0.714623 -14.015326 14.627688 -17.191853 10.401970 2.539500 -7.629000 7.958900 -13.628937 1.342523 47.285207 139.239294 -48.512923 -103.266347 0.255279 -0.288733 -14.342807 -7.125000 0.000000 0.000000 14.921232 6.788426 10.597084 -24.785258 34.363717 -8.325994 -0.088460 0.030909 -8.339231 7.125000 0.000000 0.000000 
-2.821898 17.475843 16.801948 -178.416558 14.768109 -176.638826 -13.494704 18.389842 -19.100519 2.609077 12.388899 34.887103 0.534242 0.336958 -5.299016 0.000200 0.093600 0.257300 19.580924 -25.391748 -72.576316 -26.689311 -18.766805 108.550317 -0.753490 -3.608064 21.749160 -2.108700 -9.088900 26.073800 3.755767 0.275854 -2.860435 0.918002 0.613742 -13.891260 14.611970 -17.181547 10.511049 2.541400 -7.620500 8.007800 -13.178951 0.931328 47.510283 139.919493 -48.051487 -103.726797 0.305405 -0.262771 -14.637465 -7.125000 0.000000 0.000000 14.840432 6.871236 10.050499 -23.501569 33.090303 -7.602382 -0.115570 0.024439 -6.771740 7.125000 0.000000 0.000000 
-2.795779 17.487631 16.796517 -178.382948 14.527227 -176.395554 -13.397594 19.057809 -19.923844 2.788336 12.532880 35.497973 0.707282 -0.470633 -4.462875 0.003900 -0.405200 -1.113500 18.793453 -24.218478 -69.887532 -25.497171 -19.205849 104.671916 -0.448229 -4.399740 20.213163 -2.094800 -9.060800 25.985800 3.836765 0.072068 -2.928281 1.003009 0.512139 -13.761805 14.668762 -17.180437 10.530141 2.562800 -7.618100 8.034100 -12.724626 0.506831 47.706275 140.525792 -47.628715 -104.137937 0.338608 -0.238434 -14.898542 -7.125000 0.000000 0.000000 14.776872 6.949803 9.459976 -22.239196 31.793869 -6.919181 -0.139109 0.005009 -4.735574 7.125000 0.000000 0.000000 
-2.765268 17.495490 16.792356 -178.368148 14.271189 -176.190157 -13.284454 19.812832 -20.812646 3.006871 12.710364 36.246974 0.911183 -1.432792 -3.566933 0.023000 -0.979600 -2.692600 18.087948 -23.094247 -67.178233 -24.235142 -19.578648 100.650684 -0.138348 -5.331607 18.770275 -2.035500 -8.939600 25.606400 3.905372 -0.136700 -2.973578 1.093415 0.409930 -13.635472 14.804117 -17.190342 10.467279 2.606800 -7.621900 8.039600 -12.263433 0.079190 47.894329 141.060189 -47.246383 -104.502085 0.353159 -0.215620 -15.113050 -7.125000 0.000000 0.000000 14.728427 7.017650 8.860548 -21.009779 30.490148 -6.281545 -0.159621 -0.023784 -2.348285 7.125000 0.000000 0.000000 
-2.729441 17.498611 16.789236 -178.366843 14.004252 -176.030723 -13.151467 20.672240 -21.771571 3.271123 12.923715 37.150675 1.140535 -2.545869 -2.623346 0.060100 -1.582100 -4.351900 17.458106 -22.009288 -64.434414 -22.903792 -19.874947 96.498997 0.162777 -6.283332 17.464659 -1.921700 -8.701100 24.864800 3.961662 -0.346999 -2.997807 1.189624 0.308828 -13.518894 14.999290 -17.211544 10.343659 2.667000 -7.631400 8.028400 -11.787250 -0.353861 48.097134 141.538021 -46.896511 -104.829319 0.350524 -0.196829 -15.263379 -7.125000 0.000000 0.000000 14.698436 7.068316 8.290335 -19.823420 29.194708 -5.692758 -0.177546 -0.058442 0.242742 7.125000 0.000000 0.000000 
-2.688067 17.496184 16.787155 -178.367530 13.729182 -175.913406 -12.991751 21.642466 -22.810141 3.586266 13.172699 38.218802 1.379966 -3.767507 -1.651826 0.113400 -2.171200 -5.979000 16.912144 -20.949106 -61.656419 -21.504081 -20.085462 92.231809 0.426144 -7.092617 16.389988 -1.725500 -8.269300 23.535200 4.017364 -0.554666 -3.007127 1.300286 0.211471 -13.417366 15.248339 -17.244549 10.183188 2.744000 -7.646300 8.007800 -11.305624 -0.791961 48.341606 141.961614 -46.578795 -105.120912 0.336063 -0.182770 -15.295521 -7.125000 0.000000 0.000000 14.673970 7.094423 7.793815 -18.686796 27.920880 -5.154017 -0.193543 -0.096088 2.875612 7.125000 0.000000 0.000000 
-2.641145 17.487054 16.785422 -178.363361 13.451950 -175.833288 -12.803474 22.718347 -23.933243 3.956665 13.456069 39.455058 1.602710 -4.994005 -0.700950 0.182700 -2.753000 -7.591800 16.451519 -19.904585 -58.854427 -20.039932 -20.199951 87.863740 0.622686 -7.639248 15.644792 -1.447100 -7.604500 21.519100 4.073360 -0.756243 -3.006329 1.422300 0.118222 -13.329308 15.518046 -17.295006 10.036332 2.825500 -7.666600 7.993200 -10.806704 -1.244043 48.645879 142.318691 -46.304266 -105.369833 0.306225 -0.173544 -15.146131 -7.125000 0.000000 0.000000 14.646057 7.101862 7.406435 -17.599005 26.673092 -4.661832 -0.207879 -0.134713 5.406919 7.125000 0.000000 0.000000 
-2.588791 17.470296 16.782995 -178.358647 13.175095 -175.781308 -12.598005 23.891563 -25.145879 4.385841 13.772026 40.860726 1.789893 -6.139277 0.174752 0.262000 -3.293200 -9.096100 16.065692 -18.873738 -56.040733 -18.523174 -20.208978 83.424230 0.734740 -7.864720 15.271403 -1.119200 -6.720300 18.889200 4.130017 -0.950066 -2.999898 1.556560 0.029548 -13.248426 15.787398 -17.366885 9.944485 2.904600 -7.691700 7.998600 -10.287846 -1.717798 49.023598 142.601898 -46.080633 -105.572216 0.257294 -0.166480 -14.748332 -7.125000 0.000000 0.000000 14.614445 7.087279 7.139360 -16.566385 25.464275 -4.216590 -0.221350 -0.173222 7.748275 7.125000 0.000000 0.000000 
-2.531468 17.444986 16.778950 -178.348101 12.904835 -175.747456 -12.376121 25.138357 -26.438537 4.874254 14.115426 42.425704 1.931318 -7.138291 0.932538 0.339900 -3.746400 -10.364100 15.762607 -17.863379 -53.238854 -16.972688 -20.107486 78.983780 0.752371 -7.640874 15.082532 -0.770000 -5.603100 15.637000 4.186756 -1.133223 -2.992537 1.699432 -0.053951 -13.167227 16.047142 -17.457528 9.919076 2.978900 -7.719900 8.025100 -9.751437 -2.218860 49.486360 142.785394 -45.928449 -105.712724 0.186441 -0.157397 -14.042473 -7.125000 0.000000 0.000000 14.585290 7.050933 6.991279 -15.594180 24.306008 -3.817984 -0.234932 -0.211345 9.871190 7.125000 0.000000 0.000000 
